<mxfile host="app.diagrams.net" modified="2020-07-31T16:27:35.057Z" agent="5.0 (Macintosh; Intel Mac OS X 10_15_4) AppleWebKit/605.1.15 (KHTML, like Gecko) Version/13.1.2 Safari/605.1.15" etag="EU_hxxbxaLRIketnfOU7" version="13.5.8" type="github">
  <diagram id="C5RBs43oDa-KdzZeNtuy" name="Page-1">
    <mxGraphModel dx="868" dy="742" grid="1" gridSize="10" guides="1" tooltips="1" connect="1" arrows="1" fold="1" page="1" pageScale="1" pageWidth="850" pageHeight="1100" math="0" shadow="0">
      <root>
        <mxCell id="WIyWlLk6GJQsqaUBKTNV-0" />
        <mxCell id="WIyWlLk6GJQsqaUBKTNV-1" parent="WIyWlLk6GJQsqaUBKTNV-0" />
        <mxCell id="WIyWlLk6GJQsqaUBKTNV-2" value="5) ..., Be7" style="rounded=0;html=1;jettySize=auto;orthogonalLoop=1;fontSize=11;endArrow=block;endFill=0;endSize=8;strokeWidth=1;shadow=0;labelBackgroundColor=none;edgeStyle=orthogonalEdgeStyle;entryX=0;entryY=0.5;entryDx=0;entryDy=0;fontStyle=1;fontColor=#009900;" parent="WIyWlLk6GJQsqaUBKTNV-1" source="WIyWlLk6GJQsqaUBKTNV-3" target="hNoJVzoelpF0o08Z8zgl-0" edge="1">
          <mxGeometry x="0.8333" y="-260" relative="1" as="geometry">
            <mxPoint x="170" y="173" as="targetPoint" />
            <mxPoint as="offset" />
          </mxGeometry>
        </mxCell>
        <mxCell id="WIyWlLk6GJQsqaUBKTNV-3" value="Evans Accepted:&lt;br&gt;5) c3, ..." style="rounded=1;whiteSpace=wrap;html=1;fontSize=12;glass=0;strokeWidth=1;shadow=0;align=left;" parent="WIyWlLk6GJQsqaUBKTNV-1" vertex="1">
          <mxGeometry x="20" y="443" width="120" height="40" as="geometry" />
        </mxCell>
        <mxCell id="hNoJVzoelpF0o08Z8zgl-0" value="6) d4, ....&amp;nbsp;" style="rounded=1;whiteSpace=wrap;html=1;fontSize=12;glass=0;strokeWidth=1;shadow=0;align=left;" parent="WIyWlLk6GJQsqaUBKTNV-1" vertex="1">
          <mxGeometry x="140" y="123" width="70" height="40" as="geometry" />
        </mxCell>
        <mxCell id="hNoJVzoelpF0o08Z8zgl-1" value="" style="rounded=0;html=1;jettySize=auto;orthogonalLoop=1;fontSize=11;endArrow=block;endFill=0;endSize=8;strokeWidth=1;shadow=0;labelBackgroundColor=none;edgeStyle=orthogonalEdgeStyle;exitX=1;exitY=0.5;exitDx=0;exitDy=0;entryX=0;entryY=0.5;entryDx=0;entryDy=0;" parent="WIyWlLk6GJQsqaUBKTNV-1" source="hNoJVzoelpF0o08Z8zgl-0" target="hNoJVzoelpF0o08Z8zgl-2" edge="1">
          <mxGeometry relative="1" as="geometry">
            <mxPoint x="315" y="243" as="sourcePoint" />
            <mxPoint x="245" y="143" as="targetPoint" />
          </mxGeometry>
        </mxCell>
        <mxCell id="hNoJVzoelpF0o08Z8zgl-2" value="6) ..., d6; &lt;br&gt;7) Qb3, ...&amp;nbsp;" style="rounded=1;whiteSpace=wrap;html=1;fontSize=12;glass=0;strokeWidth=1;shadow=0;align=left;" parent="WIyWlLk6GJQsqaUBKTNV-1" vertex="1">
          <mxGeometry x="240" y="123" width="70" height="40" as="geometry" />
        </mxCell>
        <mxCell id="hNoJVzoelpF0o08Z8zgl-3" value="7) ..., Na5; 8) Bxf7, Kf8&lt;br&gt;9) Qa4, Kxf7; 10) Qxa5, ..." style="rounded=1;whiteSpace=wrap;html=1;fontSize=12;glass=0;strokeWidth=1;shadow=0;align=left;fillColor=#E6E6E6;" parent="WIyWlLk6GJQsqaUBKTNV-1" vertex="1">
          <mxGeometry x="425" y="123" width="155" height="40" as="geometry" />
        </mxCell>
        <mxCell id="hNoJVzoelpF0o08Z8zgl-6" value="" style="rounded=0;html=1;jettySize=auto;orthogonalLoop=1;fontSize=11;endArrow=block;endFill=0;endSize=8;strokeWidth=1;shadow=0;labelBackgroundColor=none;edgeStyle=orthogonalEdgeStyle;exitX=1;exitY=0.5;exitDx=0;exitDy=0;entryX=0;entryY=0.5;entryDx=0;entryDy=0;" parent="WIyWlLk6GJQsqaUBKTNV-1" source="hNoJVzoelpF0o08Z8zgl-2" target="hNoJVzoelpF0o08Z8zgl-3" edge="1">
          <mxGeometry relative="1" as="geometry">
            <mxPoint x="220" y="153" as="sourcePoint" />
            <mxPoint x="255" y="153" as="targetPoint" />
          </mxGeometry>
        </mxCell>
        <mxCell id="hNoJVzoelpF0o08Z8zgl-10" value="Wht takes center" style="text;html=1;strokeColor=none;fillColor=none;align=center;verticalAlign=middle;whiteSpace=wrap;rounded=0;fontColor=#0000FF;" parent="WIyWlLk6GJQsqaUBKTNV-1" vertex="1">
          <mxGeometry x="140" y="93" width="60" height="20" as="geometry" />
        </mxCell>
        <mxCell id="hNoJVzoelpF0o08Z8zgl-12" value="Blk attacks Q" style="text;html=1;strokeColor=none;fillColor=none;align=center;verticalAlign=middle;whiteSpace=wrap;rounded=0;fontColor=#0000FF;" parent="WIyWlLk6GJQsqaUBKTNV-1" vertex="1">
          <mxGeometry x="420" y="102" width="160" height="20" as="geometry" />
        </mxCell>
        <mxCell id="hNoJVzoelpF0o08Z8zgl-13" value="Blk cedes center" style="text;html=1;strokeColor=none;fillColor=none;align=center;verticalAlign=middle;whiteSpace=wrap;rounded=0;fontColor=#0000FF;" parent="WIyWlLk6GJQsqaUBKTNV-1" vertex="1">
          <mxGeometry x="230" y="303" width="100" height="20" as="geometry" />
        </mxCell>
        <mxCell id="hNoJVzoelpF0o08Z8zgl-14" value="&lt;b&gt;Even material;&amp;nbsp;&lt;br&gt;Blkâ€™s K exposed&lt;br&gt;&lt;/b&gt;" style="text;html=1;strokeColor=none;fillColor=none;align=center;verticalAlign=middle;whiteSpace=wrap;rounded=0;fontColor=#FF0000;" parent="WIyWlLk6GJQsqaUBKTNV-1" vertex="1">
          <mxGeometry x="580" y="133" width="115" height="20" as="geometry" />
        </mxCell>
        <mxCell id="hNoJVzoelpF0o08Z8zgl-15" value="7) ..., Nh6; 8) Bxh6, gxh6&lt;br&gt;9) Bxf7+, ...&amp;nbsp;" style="rounded=1;whiteSpace=wrap;html=1;fontSize=12;glass=0;strokeWidth=1;shadow=0;align=left;" parent="WIyWlLk6GJQsqaUBKTNV-1" vertex="1">
          <mxGeometry x="300" y="223" width="140" height="40" as="geometry" />
        </mxCell>
        <mxCell id="hNoJVzoelpF0o08Z8zgl-16" value="" style="rounded=0;html=1;jettySize=auto;orthogonalLoop=1;fontSize=11;endArrow=block;endFill=0;endSize=8;strokeWidth=1;shadow=0;labelBackgroundColor=none;edgeStyle=orthogonalEdgeStyle;exitX=0.5;exitY=1;exitDx=0;exitDy=0;entryX=0;entryY=0.5;entryDx=0;entryDy=0;" parent="WIyWlLk6GJQsqaUBKTNV-1" source="hNoJVzoelpF0o08Z8zgl-2" target="hNoJVzoelpF0o08Z8zgl-15" edge="1">
          <mxGeometry relative="1" as="geometry">
            <mxPoint x="279" y="183" as="sourcePoint" />
            <mxPoint x="394" y="183" as="targetPoint" />
          </mxGeometry>
        </mxCell>
        <mxCell id="hNoJVzoelpF0o08Z8zgl-17" value="9) ..., Kd7; 10) Qe6#" style="rounded=1;whiteSpace=wrap;html=1;fontSize=12;glass=0;strokeWidth=1;shadow=0;align=left;fillColor=#E6E6E6;" parent="WIyWlLk6GJQsqaUBKTNV-1" vertex="1">
          <mxGeometry x="480" y="213" width="140" height="20" as="geometry" />
        </mxCell>
        <mxCell id="hNoJVzoelpF0o08Z8zgl-18" value="9) ..., Kf8; 10) Bh5, ..." style="rounded=1;whiteSpace=wrap;html=1;fontSize=12;glass=0;strokeWidth=1;shadow=0;align=left;fillColor=#E6E6E6;" parent="WIyWlLk6GJQsqaUBKTNV-1" vertex="1">
          <mxGeometry x="480" y="253" width="140" height="20" as="geometry" />
        </mxCell>
        <mxCell id="hNoJVzoelpF0o08Z8zgl-19" value="" style="rounded=0;html=1;jettySize=auto;orthogonalLoop=1;fontSize=11;endArrow=block;endFill=0;endSize=8;strokeWidth=1;shadow=0;labelBackgroundColor=none;edgeStyle=orthogonalEdgeStyle;entryX=0;entryY=0.5;entryDx=0;entryDy=0;exitX=1;exitY=0.5;exitDx=0;exitDy=0;" parent="WIyWlLk6GJQsqaUBKTNV-1" source="hNoJVzoelpF0o08Z8zgl-15" target="hNoJVzoelpF0o08Z8zgl-17" edge="1">
          <mxGeometry relative="1" as="geometry">
            <mxPoint x="480" y="263" as="sourcePoint" />
            <mxPoint x="555" y="262.5" as="targetPoint" />
          </mxGeometry>
        </mxCell>
        <mxCell id="hNoJVzoelpF0o08Z8zgl-20" value="" style="rounded=0;html=1;jettySize=auto;orthogonalLoop=1;fontSize=11;endArrow=block;endFill=0;endSize=8;strokeWidth=1;shadow=0;labelBackgroundColor=none;edgeStyle=orthogonalEdgeStyle;entryX=0;entryY=0.25;entryDx=0;entryDy=0;" parent="WIyWlLk6GJQsqaUBKTNV-1" target="hNoJVzoelpF0o08Z8zgl-18" edge="1">
          <mxGeometry relative="1" as="geometry">
            <mxPoint x="440" y="243" as="sourcePoint" />
            <mxPoint x="490" y="253" as="targetPoint" />
          </mxGeometry>
        </mxCell>
        <mxCell id="hNoJVzoelpF0o08Z8zgl-21" value="Blk attempts to O-O" style="text;html=1;strokeColor=none;fillColor=none;align=center;verticalAlign=middle;whiteSpace=wrap;rounded=0;fontColor=#0000FF;" parent="WIyWlLk6GJQsqaUBKTNV-1" vertex="1">
          <mxGeometry x="300" y="203" width="140" height="20" as="geometry" />
        </mxCell>
        <mxCell id="hNoJVzoelpF0o08Z8zgl-22" value="&lt;b&gt;# !!&lt;br&gt;&lt;/b&gt;" style="text;html=1;strokeColor=none;fillColor=none;align=center;verticalAlign=middle;whiteSpace=wrap;rounded=0;fontColor=#FF0000;" parent="WIyWlLk6GJQsqaUBKTNV-1" vertex="1">
          <mxGeometry x="620" y="213" width="50" height="20" as="geometry" />
        </mxCell>
        <mxCell id="hNoJVzoelpF0o08Z8zgl-23" value="&lt;b&gt;Wht has even material; Blk K is exposed; # threat; O-O next?&lt;br&gt;&lt;/b&gt;" style="text;html=1;strokeColor=none;fillColor=none;align=center;verticalAlign=middle;whiteSpace=wrap;rounded=0;fontColor=#FF0000;" parent="WIyWlLk6GJQsqaUBKTNV-1" vertex="1">
          <mxGeometry x="620" y="253" width="140" height="20" as="geometry" />
        </mxCell>
        <mxCell id="hNoJVzoelpF0o08Z8zgl-24" value="6) ..., exd4; &lt;br&gt;7) cxd4, ...&amp;nbsp;" style="rounded=1;whiteSpace=wrap;html=1;fontSize=12;glass=0;strokeWidth=1;shadow=0;align=left;fillColor=#E6E6E6;" parent="WIyWlLk6GJQsqaUBKTNV-1" vertex="1">
          <mxGeometry x="240" y="323" width="70" height="40" as="geometry" />
        </mxCell>
        <mxCell id="hNoJVzoelpF0o08Z8zgl-27" value="" style="rounded=0;html=1;jettySize=auto;orthogonalLoop=1;fontSize=11;endArrow=block;endFill=0;endSize=8;strokeWidth=1;shadow=0;labelBackgroundColor=none;edgeStyle=orthogonalEdgeStyle;entryX=0;entryY=0.5;entryDx=0;entryDy=0;" parent="WIyWlLk6GJQsqaUBKTNV-1" target="hNoJVzoelpF0o08Z8zgl-24" edge="1">
          <mxGeometry relative="1" as="geometry">
            <mxPoint x="210" y="143" as="sourcePoint" />
            <mxPoint x="310" y="253" as="targetPoint" />
            <Array as="points">
              <mxPoint x="220" y="143" />
              <mxPoint x="220" y="343" />
            </Array>
          </mxGeometry>
        </mxCell>
        <mxCell id="hNoJVzoelpF0o08Z8zgl-28" value="Blk contests center; Wht attacks f7" style="text;html=1;strokeColor=none;fillColor=none;align=center;verticalAlign=middle;whiteSpace=wrap;rounded=0;fontColor=#0000FF;" parent="WIyWlLk6GJQsqaUBKTNV-1" vertex="1">
          <mxGeometry x="230" y="93" width="110" height="20" as="geometry" />
        </mxCell>
        <mxCell id="hNoJVzoelpF0o08Z8zgl-31" value="&lt;b&gt;Wht has control of center; Next: O-O, Qb3, d5, or Nc3&lt;br&gt;&lt;/b&gt;" style="text;html=1;strokeColor=none;fillColor=none;align=center;verticalAlign=middle;whiteSpace=wrap;rounded=0;fontColor=#FF0000;" parent="WIyWlLk6GJQsqaUBKTNV-1" vertex="1">
          <mxGeometry x="320" y="333" width="160" height="20" as="geometry" />
        </mxCell>
        <mxCell id="QEFQ3iD0QcqnyX58_tor-0" value="Often similar to Be7 but w/ tempo" style="rounded=1;whiteSpace=wrap;html=1;fontSize=12;glass=0;strokeWidth=1;shadow=0;align=left;" parent="WIyWlLk6GJQsqaUBKTNV-1" vertex="1">
          <mxGeometry x="210" y="443" width="100" height="40" as="geometry" />
        </mxCell>
        <mxCell id="QEFQ3iD0QcqnyX58_tor-1" value="5) ..., Bc5" style="rounded=0;html=1;jettySize=auto;orthogonalLoop=1;fontSize=11;endArrow=block;endFill=0;endSize=8;strokeWidth=1;shadow=0;labelBackgroundColor=none;edgeStyle=orthogonalEdgeStyle;entryX=0;entryY=0.5;entryDx=0;entryDy=0;fontStyle=1;fontColor=#009900;exitX=1;exitY=0.5;exitDx=0;exitDy=0;" parent="WIyWlLk6GJQsqaUBKTNV-1" source="WIyWlLk6GJQsqaUBKTNV-3" target="QEFQ3iD0QcqnyX58_tor-0" edge="1">
          <mxGeometry x="-0.1429" y="10" relative="1" as="geometry">
            <mxPoint x="150" y="153.0000000000001" as="targetPoint" />
            <mxPoint as="offset" />
            <mxPoint x="90.0344827586207" y="453" as="sourcePoint" />
          </mxGeometry>
        </mxCell>
        <mxCell id="QEFQ3iD0QcqnyX58_tor-2" value="" style="rounded=0;html=1;jettySize=auto;orthogonalLoop=1;fontSize=11;endArrow=block;endFill=0;endSize=8;strokeWidth=1;shadow=0;labelBackgroundColor=none;edgeStyle=orthogonalEdgeStyle;entryX=0.5;entryY=1;entryDx=0;entryDy=0;dashed=1;" parent="WIyWlLk6GJQsqaUBKTNV-1" source="QEFQ3iD0QcqnyX58_tor-0" target="hNoJVzoelpF0o08Z8zgl-0" edge="1">
          <mxGeometry relative="1" as="geometry">
            <mxPoint x="450" y="403.0000000000001" as="sourcePoint" />
            <mxPoint x="480" y="603" as="targetPoint" />
            <Array as="points">
              <mxPoint x="255" y="403" />
              <mxPoint x="175" y="403" />
            </Array>
          </mxGeometry>
        </mxCell>
        <mxCell id="QEFQ3iD0QcqnyX58_tor-3" value="Can lead to Nd2" style="text;html=1;strokeColor=none;fillColor=none;align=center;verticalAlign=middle;whiteSpace=wrap;rounded=0;fontColor=#0000FF;" parent="WIyWlLk6GJQsqaUBKTNV-1" vertex="1">
          <mxGeometry x="208" y="483" width="100" height="20" as="geometry" />
        </mxCell>
        <mxCell id="Eih6frap9FhRKET7iyO7-0" value="&lt;div&gt;6) d4, exd4;&lt;/div&gt;&lt;div&gt;7) O-O, ...&lt;br&gt; &lt;/div&gt;" style="rounded=1;whiteSpace=wrap;html=1;fontSize=12;glass=0;strokeWidth=1;shadow=0;align=left;" parent="WIyWlLk6GJQsqaUBKTNV-1" vertex="1">
          <mxGeometry x="140" y="659" width="70" height="40" as="geometry" />
        </mxCell>
        <mxCell id="Eih6frap9FhRKET7iyO7-1" value="5) ..., Ba5" style="rounded=0;html=1;jettySize=auto;orthogonalLoop=1;fontSize=11;endArrow=block;endFill=0;endSize=8;strokeWidth=1;shadow=0;labelBackgroundColor=none;edgeStyle=orthogonalEdgeStyle;entryX=0;entryY=0.5;entryDx=0;entryDy=0;fontStyle=1;fontColor=#009900;exitX=0.5;exitY=1;exitDx=0;exitDy=0;" parent="WIyWlLk6GJQsqaUBKTNV-1" source="WIyWlLk6GJQsqaUBKTNV-3" target="Eih6frap9FhRKET7iyO7-0" edge="1">
          <mxGeometry x="0.7656" y="159" relative="1" as="geometry">
            <mxPoint x="150" y="153" as="targetPoint" />
            <mxPoint as="offset" />
            <mxPoint x="90" y="453" as="sourcePoint" />
          </mxGeometry>
        </mxCell>
        <mxCell id="Eih6frap9FhRKET7iyO7-2" value="c3 pinned" style="text;html=1;strokeColor=none;fillColor=none;align=center;verticalAlign=middle;whiteSpace=wrap;rounded=0;fontColor=#0000FF;" parent="WIyWlLk6GJQsqaUBKTNV-1" vertex="1">
          <mxGeometry x="150" y="639" width="60" height="20" as="geometry" />
        </mxCell>
        <mxCell id="Eih6frap9FhRKET7iyO7-3" value="&lt;div&gt;7) ..., dxc3;&lt;/div&gt;&lt;div&gt;8) Qb3, ...&lt;br&gt; &lt;/div&gt;" style="rounded=1;whiteSpace=wrap;html=1;fontSize=12;glass=0;strokeWidth=1;shadow=0;align=left;" parent="WIyWlLk6GJQsqaUBKTNV-1" vertex="1">
          <mxGeometry x="250" y="659" width="70" height="40" as="geometry" />
        </mxCell>
        <mxCell id="Eih6frap9FhRKET7iyO7-4" value="" style="rounded=0;html=1;jettySize=auto;orthogonalLoop=1;fontSize=11;endArrow=block;endFill=0;endSize=8;strokeWidth=1;shadow=0;labelBackgroundColor=none;edgeStyle=orthogonalEdgeStyle;exitX=1;exitY=0.5;exitDx=0;exitDy=0;entryX=0;entryY=0.5;entryDx=0;entryDy=0;" parent="WIyWlLk6GJQsqaUBKTNV-1" source="Eih6frap9FhRKET7iyO7-0" target="Eih6frap9FhRKET7iyO7-3" edge="1">
          <mxGeometry relative="1" as="geometry">
            <mxPoint x="230" y="678.5" as="sourcePoint" />
            <mxPoint x="240" y="679" as="targetPoint" />
          </mxGeometry>
        </mxCell>
        <mxCell id="m18mQH40ReAI_8_cLznX-0" value="8) ..., Qf6; 9) e5, Nxe5&lt;br&gt;10) Re1, d6; 11) Qa4, ..." style="rounded=1;whiteSpace=wrap;html=1;fontSize=12;glass=0;strokeWidth=1;shadow=0;align=left;fillColor=#E6E6E6;" parent="WIyWlLk6GJQsqaUBKTNV-1" vertex="1">
          <mxGeometry x="423" y="659" width="155" height="40" as="geometry" />
        </mxCell>
        <mxCell id="m18mQH40ReAI_8_cLznX-2" value="" style="rounded=0;html=1;jettySize=auto;orthogonalLoop=1;fontSize=11;endArrow=block;endFill=0;endSize=8;strokeWidth=1;shadow=0;labelBackgroundColor=none;edgeStyle=orthogonalEdgeStyle;entryX=0;entryY=0.5;entryDx=0;entryDy=0;exitX=1;exitY=0.5;exitDx=0;exitDy=0;" parent="WIyWlLk6GJQsqaUBKTNV-1" source="Eih6frap9FhRKET7iyO7-3" target="m18mQH40ReAI_8_cLznX-0" edge="1">
          <mxGeometry relative="1" as="geometry">
            <mxPoint x="320" y="819" as="sourcePoint" />
            <mxPoint x="394" y="569.0000000000001" as="targetPoint" />
            <Array as="points">
              <mxPoint x="410" y="679" />
              <mxPoint x="410" y="679" />
            </Array>
          </mxGeometry>
        </mxCell>
        <mxCell id="m18mQH40ReAI_8_cLznX-3" value="Blk defending c3 &amp;amp; f7" style="text;html=1;strokeColor=none;fillColor=none;align=center;verticalAlign=middle;whiteSpace=wrap;rounded=0;fontColor=#0000FF;" parent="WIyWlLk6GJQsqaUBKTNV-1" vertex="1">
          <mxGeometry x="423" y="639" width="125" height="20" as="geometry" />
        </mxCell>
        <mxCell id="m18mQH40ReAI_8_cLznX-4" value="&lt;b&gt;LoB; up material &lt;br&gt;and position&lt;br&gt;&lt;/b&gt;" style="text;html=1;strokeColor=none;fillColor=none;align=center;verticalAlign=middle;whiteSpace=wrap;rounded=0;fontColor=#FF0000;" parent="WIyWlLk6GJQsqaUBKTNV-1" vertex="1">
          <mxGeometry x="578" y="669" width="115" height="20" as="geometry" />
        </mxCell>
        <mxCell id="m18mQH40ReAI_8_cLznX-5" value="8) ..., Qe7; 9) Nxc3, Nf6;&lt;br&gt;10) Nd5, ...;" style="rounded=1;whiteSpace=wrap;html=1;fontSize=12;glass=0;strokeWidth=1;shadow=0;align=left;" parent="WIyWlLk6GJQsqaUBKTNV-1" vertex="1">
          <mxGeometry x="423" y="759" width="155" height="40" as="geometry" />
        </mxCell>
        <mxCell id="m18mQH40ReAI_8_cLznX-6" value="" style="rounded=0;html=1;jettySize=auto;orthogonalLoop=1;fontSize=11;endArrow=block;endFill=0;endSize=8;strokeWidth=1;shadow=0;labelBackgroundColor=none;edgeStyle=orthogonalEdgeStyle;exitX=1;exitY=0.5;exitDx=0;exitDy=0;entryX=0;entryY=0.5;entryDx=0;entryDy=0;" parent="WIyWlLk6GJQsqaUBKTNV-1" source="Eih6frap9FhRKET7iyO7-3" target="m18mQH40ReAI_8_cLznX-5" edge="1">
          <mxGeometry relative="1" as="geometry">
            <mxPoint x="330" y="689" as="sourcePoint" />
            <mxPoint x="380" y="689" as="targetPoint" />
            <Array as="points">
              <mxPoint x="380" y="679" />
              <mxPoint x="380" y="779" />
            </Array>
          </mxGeometry>
        </mxCell>
        <mxCell id="m18mQH40ReAI_8_cLznX-7" value="Defend f7, surrender c3" style="text;html=1;strokeColor=none;fillColor=none;align=center;verticalAlign=middle;whiteSpace=wrap;rounded=0;fontColor=#0000FF;" parent="WIyWlLk6GJQsqaUBKTNV-1" vertex="1">
          <mxGeometry x="420" y="734" width="70" height="20" as="geometry" />
        </mxCell>
        <mxCell id="m18mQH40ReAI_8_cLznX-8" value="attempt to O-O" style="text;html=1;strokeColor=none;fillColor=none;align=center;verticalAlign=middle;whiteSpace=wrap;rounded=0;fontColor=#0000FF;" parent="WIyWlLk6GJQsqaUBKTNV-1" vertex="1">
          <mxGeometry x="508" y="734" width="70" height="20" as="geometry" />
        </mxCell>
        <mxCell id="m18mQH40ReAI_8_cLznX-9" value="Threaten Q to stop O-O" style="text;html=1;strokeColor=none;fillColor=none;align=center;verticalAlign=middle;whiteSpace=wrap;rounded=0;fontColor=#0000FF;" parent="WIyWlLk6GJQsqaUBKTNV-1" vertex="1">
          <mxGeometry x="420" y="803.5" width="70" height="20" as="geometry" />
        </mxCell>
        <mxCell id="sFezGPaMrRCGExUNzQaA-0" value="10) ..., Qxe4; 11) Ng5, Qe5;&lt;br&gt;12) Nxf7, Kxf7; 13) Nxf6+, Kxf6; 14) Bb2, ...&amp;nbsp;" style="rounded=1;whiteSpace=wrap;html=1;fontSize=12;glass=0;strokeWidth=1;shadow=0;align=left;fillColor=#E6E6E6;" parent="WIyWlLk6GJQsqaUBKTNV-1" vertex="1">
          <mxGeometry x="628" y="753.5" width="182" height="51" as="geometry" />
        </mxCell>
        <mxCell id="sFezGPaMrRCGExUNzQaA-1" value="" style="rounded=0;html=1;jettySize=auto;orthogonalLoop=1;fontSize=11;endArrow=block;endFill=0;endSize=8;strokeWidth=1;shadow=0;labelBackgroundColor=none;edgeStyle=orthogonalEdgeStyle;exitX=1;exitY=0.5;exitDx=0;exitDy=0;" parent="WIyWlLk6GJQsqaUBKTNV-1" source="m18mQH40ReAI_8_cLznX-5" edge="1">
          <mxGeometry relative="1" as="geometry">
            <mxPoint x="588" y="778.8" as="sourcePoint" />
            <mxPoint x="628" y="779" as="targetPoint" />
            <Array as="points">
              <mxPoint x="598" y="779" />
            </Array>
          </mxGeometry>
        </mxCell>
        <mxCell id="sFezGPaMrRCGExUNzQaA-2" value="&lt;b&gt;Q under threat&lt;br&gt;&lt;/b&gt;" style="text;html=1;strokeColor=none;fillColor=none;align=center;verticalAlign=middle;whiteSpace=wrap;rounded=0;fontColor=#FF0000;" parent="WIyWlLk6GJQsqaUBKTNV-1" vertex="1">
          <mxGeometry x="728" y="697" width="75" height="60" as="geometry" />
        </mxCell>
        <mxCell id="wxoNb9sK0c7LINevkv2H-0" value="&lt;div&gt;10) ..., Nxd5;&lt;/div&gt;&lt;div&gt;11) exd5, ...&lt;br&gt; &lt;/div&gt;" style="rounded=1;whiteSpace=wrap;html=1;fontSize=12;glass=0;strokeWidth=1;shadow=0;align=left;" parent="WIyWlLk6GJQsqaUBKTNV-1" vertex="1">
          <mxGeometry x="540" y="837" width="72.5" height="40" as="geometry" />
        </mxCell>
        <mxCell id="wxoNb9sK0c7LINevkv2H-2" value="&lt;div&gt;11) ..., Nd8;&lt;/div&gt;&lt;div&gt;12) Ba3, ...&lt;br&gt; &lt;/div&gt;" style="rounded=1;whiteSpace=wrap;html=1;fontSize=12;glass=0;strokeWidth=1;shadow=0;align=left;fillColor=#E6E6E6;" parent="WIyWlLk6GJQsqaUBKTNV-1" vertex="1">
          <mxGeometry x="653.75" y="837" width="72.5" height="40" as="geometry" />
        </mxCell>
        <mxCell id="wxoNb9sK0c7LINevkv2H-3" value="&lt;div&gt;11) ..., Nb4;&lt;/div&gt;&lt;div&gt;12) Re1, ...&lt;br&gt; &lt;/div&gt;" style="rounded=1;whiteSpace=wrap;html=1;fontSize=12;glass=0;strokeWidth=1;shadow=0;align=left;fillColor=#E6E6E6;" parent="WIyWlLk6GJQsqaUBKTNV-1" vertex="1">
          <mxGeometry x="653.75" y="918" width="72.5" height="40" as="geometry" />
        </mxCell>
        <mxCell id="wxoNb9sK0c7LINevkv2H-4" value="" style="rounded=0;html=1;jettySize=auto;orthogonalLoop=1;fontSize=11;endArrow=block;endFill=0;endSize=8;strokeWidth=1;shadow=0;labelBackgroundColor=none;edgeStyle=orthogonalEdgeStyle;exitX=1;exitY=0.5;exitDx=0;exitDy=0;entryX=0;entryY=0.5;entryDx=0;entryDy=0;" parent="WIyWlLk6GJQsqaUBKTNV-1" source="wxoNb9sK0c7LINevkv2H-0" target="wxoNb9sK0c7LINevkv2H-2" edge="1">
          <mxGeometry relative="1" as="geometry">
            <mxPoint x="628" y="858.71" as="sourcePoint" />
            <mxPoint x="648" y="859" as="targetPoint" />
            <Array as="points" />
          </mxGeometry>
        </mxCell>
        <mxCell id="wxoNb9sK0c7LINevkv2H-5" value="&lt;b&gt;Strong dev &amp;amp; attack&lt;br&gt;&lt;/b&gt;" style="text;html=1;strokeColor=none;fillColor=none;align=center;verticalAlign=middle;whiteSpace=wrap;rounded=0;fontColor=#FF0000;" parent="WIyWlLk6GJQsqaUBKTNV-1" vertex="1">
          <mxGeometry x="726.25" y="829" width="75" height="60" as="geometry" />
        </mxCell>
        <mxCell id="wxoNb9sK0c7LINevkv2H-8" value="" style="rounded=0;html=1;jettySize=auto;orthogonalLoop=1;fontSize=11;endArrow=block;endFill=0;endSize=8;strokeWidth=1;shadow=0;labelBackgroundColor=none;edgeStyle=orthogonalEdgeStyle;exitX=0.5;exitY=1;exitDx=0;exitDy=0;" parent="WIyWlLk6GJQsqaUBKTNV-1" source="wxoNb9sK0c7LINevkv2H-0" target="wxoNb9sK0c7LINevkv2H-3" edge="1">
          <mxGeometry relative="1" as="geometry">
            <mxPoint x="567" y="909" as="sourcePoint" />
            <mxPoint x="630" y="1009" as="targetPoint" />
            <Array as="points">
              <mxPoint x="576" y="909" />
              <mxPoint x="576" y="939" />
            </Array>
          </mxGeometry>
        </mxCell>
        <mxCell id="wxoNb9sK0c7LINevkv2H-9" value="&lt;b&gt;LoQ!&lt;/b&gt;" style="text;html=1;strokeColor=none;fillColor=none;align=center;verticalAlign=middle;whiteSpace=wrap;rounded=0;fontColor=#FF0000;" parent="WIyWlLk6GJQsqaUBKTNV-1" vertex="1">
          <mxGeometry x="726.25" y="909" width="75" height="60" as="geometry" />
        </mxCell>
        <mxCell id="wxoNb9sK0c7LINevkv2H-11" value="Playing the Evans Gambit" style="text;html=1;strokeColor=none;fillColor=none;align=center;verticalAlign=middle;whiteSpace=wrap;rounded=0;fontSize=16;" parent="WIyWlLk6GJQsqaUBKTNV-1" vertex="1">
          <mxGeometry x="320" y="30" width="190" height="20" as="geometry" />
        </mxCell>
        <mxCell id="_6xrT0YKCA-1ICAT-pBu-0" value="7) ..., Bb6; 8) cxd4, d6;&lt;br&gt;9) Nc3, ..." style="rounded=1;whiteSpace=wrap;html=1;fontSize=12;glass=0;strokeWidth=1;shadow=0;align=left;" parent="WIyWlLk6GJQsqaUBKTNV-1" vertex="1">
          <mxGeometry x="97.5" y="754" width="155" height="40" as="geometry" />
        </mxCell>
        <mxCell id="_6xrT0YKCA-1ICAT-pBu-4" value="" style="rounded=0;html=1;jettySize=auto;orthogonalLoop=1;fontSize=11;endArrow=block;endFill=0;endSize=8;strokeWidth=1;shadow=0;labelBackgroundColor=none;edgeStyle=orthogonalEdgeStyle;exitX=0.5;exitY=1;exitDx=0;exitDy=0;entryX=0.5;entryY=0;entryDx=0;entryDy=0;" parent="WIyWlLk6GJQsqaUBKTNV-1" source="Eih6frap9FhRKET7iyO7-0" target="_6xrT0YKCA-1ICAT-pBu-0" edge="1">
          <mxGeometry relative="1" as="geometry">
            <mxPoint x="280" y="743.78" as="sourcePoint" />
            <mxPoint x="330" y="743.78" as="targetPoint" />
            <Array as="points">
              <mxPoint x="175" y="716" />
              <mxPoint x="175" y="716" />
            </Array>
          </mxGeometry>
        </mxCell>
        <mxCell id="_6xrT0YKCA-1ICAT-pBu-5" value="Qb3 no longer good" style="text;html=1;strokeColor=none;fillColor=none;align=center;verticalAlign=middle;whiteSpace=wrap;rounded=0;fontColor=#0000FF;" parent="WIyWlLk6GJQsqaUBKTNV-1" vertex="1">
          <mxGeometry x="97.5" y="728" width="72.5" height="20" as="geometry" />
        </mxCell>
        <mxCell id="_6xrT0YKCA-1ICAT-pBu-6" value="&lt;div&gt;9) ..., Nh6;&lt;/div&gt;&lt;div&gt;8) Bxh6, ...&lt;br&gt; &lt;/div&gt;" style="rounded=1;whiteSpace=wrap;html=1;fontSize=12;glass=0;strokeWidth=1;shadow=0;align=left;fillColor=#E6E6E6;" parent="WIyWlLk6GJQsqaUBKTNV-1" vertex="1">
          <mxGeometry x="290" y="757" width="70" height="40" as="geometry" />
        </mxCell>
        <mxCell id="_6xrT0YKCA-1ICAT-pBu-7" value="" style="rounded=0;html=1;jettySize=auto;orthogonalLoop=1;fontSize=11;endArrow=block;endFill=0;endSize=8;strokeWidth=1;shadow=0;labelBackgroundColor=none;edgeStyle=orthogonalEdgeStyle;exitX=1.005;exitY=0.593;exitDx=0;exitDy=0;exitPerimeter=0;" parent="WIyWlLk6GJQsqaUBKTNV-1" source="_6xrT0YKCA-1ICAT-pBu-0" edge="1">
          <mxGeometry relative="1" as="geometry">
            <mxPoint x="260" y="776.78" as="sourcePoint" />
            <mxPoint x="290" y="777" as="targetPoint" />
            <Array as="points">
              <mxPoint x="280" y="778" />
            </Array>
          </mxGeometry>
        </mxCell>
        <mxCell id="_6xrT0YKCA-1ICAT-pBu-8" value="K Exposed" style="text;html=1;strokeColor=none;fillColor=none;align=center;verticalAlign=middle;whiteSpace=wrap;rounded=0;fontColor=#FF0000;fontStyle=1" parent="WIyWlLk6GJQsqaUBKTNV-1" vertex="1">
          <mxGeometry x="290" y="797" width="70" height="25.5" as="geometry" />
        </mxCell>
        <mxCell id="FeWLu5XVHNSyesHWaRNR-0" value="9) ..., Ne7; 10) Ng5, O-O;&lt;br&gt;&lt;div&gt;11) Qh5, h6; 12) Nxf7, Qe8;&lt;/div&gt;&lt;div&gt;13) Nxh6++, Kh7; 14) Nf7+, Kg8; 15) Qh8#&lt;br&gt;&lt;/div&gt;" style="rounded=1;whiteSpace=wrap;html=1;fontSize=12;glass=0;strokeWidth=1;shadow=0;align=left;fillColor=#E6E6E6;" parent="WIyWlLk6GJQsqaUBKTNV-1" vertex="1">
          <mxGeometry x="88.5" y="837" width="181.5" height="79" as="geometry" />
        </mxCell>
        <mxCell id="FeWLu5XVHNSyesHWaRNR-1" value="" style="rounded=0;html=1;jettySize=auto;orthogonalLoop=1;fontSize=11;endArrow=block;endFill=0;endSize=8;strokeWidth=1;shadow=0;labelBackgroundColor=none;edgeStyle=orthogonalEdgeStyle;exitX=0.5;exitY=1;exitDx=0;exitDy=0;entryX=0.5;entryY=0;entryDx=0;entryDy=0;" parent="WIyWlLk6GJQsqaUBKTNV-1" source="_6xrT0YKCA-1ICAT-pBu-0" target="FeWLu5XVHNSyesHWaRNR-0" edge="1">
          <mxGeometry relative="1" as="geometry">
            <mxPoint x="174.8" y="806" as="sourcePoint" />
            <mxPoint x="175" y="836" as="targetPoint" />
            <Array as="points" />
          </mxGeometry>
        </mxCell>
        <mxCell id="FeWLu5XVHNSyesHWaRNR-3" value="" style="rounded=0;html=1;jettySize=auto;orthogonalLoop=1;fontSize=11;endArrow=block;endFill=0;endSize=8;strokeWidth=1;shadow=0;labelBackgroundColor=none;edgeStyle=orthogonalEdgeStyle;exitX=0.5;exitY=1;exitDx=0;exitDy=0;" parent="WIyWlLk6GJQsqaUBKTNV-1" source="m18mQH40ReAI_8_cLznX-5" target="wxoNb9sK0c7LINevkv2H-0" edge="1">
          <mxGeometry relative="1" as="geometry">
            <mxPoint x="500.25" y="837" as="sourcePoint" />
            <mxPoint x="530" y="898" as="targetPoint" />
            <Array as="points">
              <mxPoint x="501" y="857" />
              <mxPoint x="500" y="857" />
              <mxPoint x="500" y="856" />
              <mxPoint x="530" y="856" />
              <mxPoint x="530" y="857" />
            </Array>
          </mxGeometry>
        </mxCell>
        <mxCell id="FeWLu5XVHNSyesHWaRNR-4" value="#!!" style="text;html=1;strokeColor=none;fillColor=none;align=center;verticalAlign=middle;whiteSpace=wrap;rounded=0;fontColor=#FF0000;fontStyle=1" parent="WIyWlLk6GJQsqaUBKTNV-1" vertex="1">
          <mxGeometry x="145" y="918" width="70" height="25.5" as="geometry" />
        </mxCell>
        <mxCell id="FeWLu5XVHNSyesHWaRNR-5" value="9) ..., Nf6; 10) e5, dxe5;&lt;br&gt;11) Ba3, exd4; 12) Re1+, ..." style="rounded=1;whiteSpace=wrap;html=1;fontSize=12;glass=0;strokeWidth=1;shadow=0;align=left;fillColor=#E6E6E6;" parent="WIyWlLk6GJQsqaUBKTNV-1" vertex="1">
          <mxGeometry x="308" y="875" width="155" height="40" as="geometry" />
        </mxCell>
        <mxCell id="FeWLu5XVHNSyesHWaRNR-6" value="" style="rounded=0;html=1;jettySize=auto;orthogonalLoop=1;fontSize=11;endArrow=block;endFill=0;endSize=8;strokeWidth=1;shadow=0;labelBackgroundColor=none;edgeStyle=orthogonalEdgeStyle;entryX=0;entryY=0.5;entryDx=0;entryDy=0;exitX=1.005;exitY=0.585;exitDx=0;exitDy=0;exitPerimeter=0;" parent="WIyWlLk6GJQsqaUBKTNV-1" source="_6xrT0YKCA-1ICAT-pBu-0" target="FeWLu5XVHNSyesHWaRNR-5" edge="1">
          <mxGeometry relative="1" as="geometry">
            <mxPoint x="270" y="794" as="sourcePoint" />
            <mxPoint x="290" y="855" as="targetPoint" />
            <Array as="points">
              <mxPoint x="270" y="777" />
              <mxPoint x="270" y="826" />
              <mxPoint x="280" y="826" />
              <mxPoint x="280" y="857" />
              <mxPoint x="290" y="857" />
              <mxPoint x="290" y="895" />
            </Array>
          </mxGeometry>
        </mxCell>
        <mxCell id="FeWLu5XVHNSyesHWaRNR-7" value="Blk wants to O-O; Wht attacks N to prevent" style="text;html=1;strokeColor=none;fillColor=none;align=center;verticalAlign=middle;whiteSpace=wrap;rounded=0;fontColor=#0000FF;" parent="WIyWlLk6GJQsqaUBKTNV-1" vertex="1">
          <mxGeometry x="308" y="849" width="152.5" height="20" as="geometry" />
        </mxCell>
        <mxCell id="FeWLu5XVHNSyesHWaRNR-8" value="Strong dev; Qb3 next" style="text;html=1;strokeColor=none;fillColor=none;align=center;verticalAlign=middle;whiteSpace=wrap;rounded=0;fontColor=#FF0000;fontStyle=1" parent="WIyWlLk6GJQsqaUBKTNV-1" vertex="1">
          <mxGeometry x="310" y="915" width="150" height="25.5" as="geometry" />
        </mxCell>
        <mxCell id="FeWLu5XVHNSyesHWaRNR-9" value="Blk wants to O-O; Wht attacks f7 to prevent" style="text;html=1;strokeColor=none;fillColor=none;align=center;verticalAlign=middle;whiteSpace=wrap;rounded=0;fontColor=#0000FF;" parent="WIyWlLk6GJQsqaUBKTNV-1" vertex="1">
          <mxGeometry x="27.5" y="837" width="60" height="77" as="geometry" />
        </mxCell>
      </root>
    </mxGraphModel>
  </diagram>
</mxfile>
